<?xml version="1.0" encoding="utf-8"?>
<svg xmlns="http://www.w3.org/2000/svg" viewBox="200.383 149.091 299.8925 347.8733" width="299.892px" height="347.873px" preserveAspectRatio="none"><g style="pointer-events: none;" transform="matrix(0.25181201100349426, 0, 0, 0.2524479925632477, 295.6797790527344, 213.750503540039)" id="object-7"><title>fox</title><path d="M -188.501 836.591 L -178.734 825.862 L -163.54 813.873 L -151.745 806.912 L -140.54 803.873 L -121.55 799.873 L -105.55 798.873 L -102.55 796.873 L -100.55 786.873 L -97.545 774.873 L -95.545 768.873 L -93.545 758.873 L -91.545 752.873 L -89.545 742.873 L -87.545 736.873 L -85.545 726.873 L -83.545 720.873 L -81.545 710.873 L -79.545 704.873 L -77.545 694.873 L -76.545 689.873 L -72.545 678.873 L -69.545 666.873 L -67.545 661.873 L -65.545 650.873 L -61.545 641.873 L -55.545 621.873 L -43.545 585.873 L -30.545 547.873 L -24.545 532.873 L -17.545 515.873 L -12.545 503.873 L -6.545 491.873 L -7.545 486.873 L -16.545 479.873 L -31.545 473.873 L -62.545 461.873 L -84.545 454.873 L -112.55 446.873 L -157.54 436.873 L -181.54 430.873 L -196.54 427.873 L -220.54 422.873 L -269.55 408.873 L -287.55 401.873 L -303.55 394.873 L -315.55 389.873 L -326.55 382.873 L -339.55 374.873 L -346.55 367.873 L -354.55 360.873 L -367.55 347.873 L -373.322 338.224 L -376.199 329.138 C -381.541 306.702 -375.673 302.697 -375.673 302.697 L -369.27 296.645 L -355.55 287.873 L -346.55 280.873 L -321.55 255.873 L -310.55 239.873 L -300.55 223.873 L -291.55 208.873 L -280.55 188.873 L -269.55 165.873 L -269.55 146.873 L -273.55 130.873 L -279.738 116.248 L -284.55 102.873 L -289.769 86.061 L -293.769 62.061 L -298.175 38.467 L -300.55 6.873 C -302.667 6.873 -301.604 -105.13 -300.55 -105.13 L -299.581 -120.88 L -297.206 -134.786 L -289.55 -164.13 L -286.362 -178.192 L -281.55 -193.13 L -274.55 -209.13 L -269.55 -222.13 L -262.55 -235.13 L -257.55 -242.13 L -254.54 -247.13 L -248.54 -252.13 L -240.54 -256.13 L -232.54 -256.13 L -206.54 -249.13 L -162.54 -234.13 L -136.54 -221.13 L -121.55 -211.13 L -96.545 -194.13 L -87.545 -187.13 L -71.545 -176.13 L -57.545 -164.13 L -45.764 -154.38 L -36.764 -146.349 L -27.545 -138.13 L -15.545 -122.13 L -9.357 -114.318 L -3.545 -106.13 L -1.545 -104.13 L 2.455 -99.13 L 6.455 -98.127 L 11.455 -100.13 L 22.455 -102.13 L 44.455 -108.13 L 60.455 -112.13 L 83.455 -116.13 L 129.455 -120.13 L 182.455 -120.13 L 219.455 -116.13 L 243.455 -112.13 L 269.455 -105.13 L 285.455 -101.13 L 295.83 -99.505 L 305.455 -107.13 L 317.532 -121.13 L 328.455 -134.13 L 343.455 -149.13 L 357.057 -162.257 L 374.455 -176.13 L 388.969 -186.246 L 401.455 -195.13 L 414.941 -204.412 L 426.455 -212.13 L 433.455 -216.13 L 453.455 -225.13 L 469.455 -233.13 L 484.455 -240.13 L 511.367 -250.489 L 532.99 -254.053 L 552.455 -252.13 L 558.455 -248.13 L 565.455 -241.13 L 573.455 -228.13 L 581.455 -211.13 L 584.455 -202.13 L 589.455 -182.13 L 593.455 -165.13 L 596.455 -148.13 L 603.114 -120.14 L 607.537 -78.583 L 604.325 -21.122 L 600.702 25.605 L 592.455 73.873 L 589.455 95.873 L 586.455 110.873 L 581.455 127.873 L 574.455 146.873 C 572.948 146.371 571.245 164.803 574.455 165.873 L 585.455 188.873 L 596.455 210.873 L 608.455 230.873 L 618.455 246.873 L 629.455 259.873 L 644.455 274.873 L 652.455 281.873 L 657.455 285.873 L 669.095 293.753 L 680.494 305.912 C 682.818 308.304 684.768 327.355 683.942 324.653 L 675.455 344.873 L 669.455 353.873 L 652.455 370.873 L 628.455 386.873 L 614.455 393.873 L 594.455 401.873 L 569.455 408.873 L 552.455 413.873 L 503.455 425.873 L 489.455 428.873 L 459.455 435.873 L 440.455 439.873 L 421.455 444.873 L 385.455 456.873 L 362.455 464.873 L 344.455 472.873 L 332.455 477.873 L 309.455 488.873 L 311.455 492.873 L 321.455 511.873 L 329.455 529.873 L 336.455 546.873 L 344.455 570.873 L 347.455 580.873 L 353.455 599.873 L 355.455 608.873 L 358.455 619.873 L 361.455 633.873 L 365.455 645.873 L 370.455 662.873 L 375.455 672.873 L 379.455 670.873 L 385.455 663.873 L 392.455 652.873 L 415.455 618.873 L 423.455 606.873 L 429.853 596.63 L 438.455 587.873 L 479.455 546.873 L 488.892 538.232 L 499.455 530.873 L 544.455 500.873 L 567.455 485.873 L 586.455 471.873 L 600.455 461.873 L 609.455 454.873 L 617.455 448.873 L 629.98 437.95 L 640.455 429.873 L 653.455 419.873 L 661.455 412.873 L 672.455 404.873 L 690.455 392.873 L 706.455 380.873 L 723.455 369.873 L 730.455 364.873 L 744.35 361.95 L 758.455 363.873 L 765.455 366.873 L 771.455 376.873 L 777.455 392.873 L 779.698 400.271 L 781.455 410.873 L 782.416 459.553 L 786.455 499.873 L 789.455 520.873 L 792.455 543.873 L 797.455 563.873 L 801.455 583.873 L 805.455 599.873 L 809.455 613.873 L 811.532 623.155 L 812.494 638.348 L 812.455 647.873 L 812.455 737.873 L 812.173 747.884 L 811.212 766.028 L 809.135 780.028 L 807.455 788.873 L 804.455 799.873 L 801.455 811.873 L 791.455 839.873 L 779.455 864.873 L 767.455 887.873 L 760.455 897.873 L 748.455 915.873 L 739.455 927.873 L 731.455 935.873 L 727.853 939.514 L 725.455 942.873 L 717.455 949.873 L 708.455 958.873 L 692.145 973.271 L 675.455 983.873 L 664.455 989.873 L 624.455 1009.87 L 606.455 1017.87 L 584.455 1024.87 L 547.455 1033.87 L 516.455 1039.87 L 503.455 1041.87 L 455.455 1042.87 L 448.455 1050.87 L 443.455 1055.87 L 433.455 1060.87 L 416.455 1065.87 L 401.455 1068.87 L 389.455 1069.87 L 284.455 1070.87 L 278.455 1079.87 L 274.754 1088.519 L 270.455 1096.87 L 255.455 1111.87 L 244.455 1115.87 L 236.455 1117.87 L 217.455 1117.87 L 207.455 1113.87 L 198.455 1108.87 L 192.455 1103.87 L 187.455 1092.87 L 180.455 1070.87 L 157.455 1069.87 L 137.455 1069.87 L 107.455 1070.87 L 105.455 1087.87 L 101.455 1101.87 L 96.455 1106.87 L 88.455 1113.87 L 73.455 1120.87 L 68.455 1121.87 L 49.455 1121.87 L 42.455 1118.87 L 33.455 1112.87 L 22.455 1101.87 L 19.455 1097.87 L 17.455 1089.87 L 12.455 1074.87 L -62.545 1073.87 L -70.545 1072.87 L -110.55 1069.87 L -118.55 1068.87 L -136.54 1063.87 L -148.54 1058.87 L -158.54 1051.87 L -170.54 1040.87 L -179.54 1030.87 L -192.54 1005.87 L -200.54 988.873 L -204.54 973.873 L -205.54 962.873 L -208.86 885.174 C -210.569 885.174 -203.52 855.151 -201.811 855.151 L -188.501 836.591" fill="#070304" style=""><title>contour noir</title></path><path d="M -233.54 -221.13 L -223.54 -220.13 L -207.54 -216.13 L -186.54 -208.13 L -160.54 -196.13 L -139.54 -185.13 L -117.55 -171.13 L -101.55 -160.13 L -85.545 -147.13 L -77.545 -140.13 L -62.545 -126.13 L -38.545 -102.13 L -29.545 -91.127 L -19.545 -79.127 L -11.545 -68.127 L -7.545 -63.127 L 0.455 -63.127 L 25.455 -71.127 L 55.455 -78.127 L 75.455 -82.127 L 99.455 -85.127 L 129.455 -87.127 L 180.455 -87.127 L 211.455 -84.127 L 244.455 -79.127 L 274.455 -71.127 L 302.455 -62.127 L 309.455 -62.127 L 317.455 -74.127 L 333.455 -91.127 L 345.455 -105.13 L 353.455 -113.13 L 360.455 -121.13 L 368.455 -129.13 L 379.455 -138.13 L 389.455 -147.13 L 409.455 -162.13 L 427.455 -175.13 L 454.455 -191.13 L 478.455 -203.13 L 508.455 -214.13 L 527.455 -219.13 L 538.455 -220.13 L 543.455 -214.13 L 549.455 -202.13 L 559.455 -175.13 L 566.455 -150.13 L 569.455 -138.13 L 573.455 -112.13 L 576.455 -84.127 L 577.455 -66.127 L 577.455 -26.127 L 574.455 13.873 L 568.455 58.873 L 562.455 85.873 L 556.455 108.873 L 546.455 135.873 L 538.455 153.873 L 538.455 159.873 L 560.455 204.873 L 572.455 226.873 L 582.455 244.873 L 590.455 257.873 L 600.455 272.873 L 608.455 282.873 L 612.455 286.873 L 618.455 293.873 L 626.455 300.873 L 637.455 310.873 L 652.455 321.873 L 652.411 327.236 L 647.455 331.873 L 632.455 346.873 L 618.455 356.873 L 601.455 366.873 L 582.455 374.873 L 555.455 382.873 L 518.455 391.873 L 412.455 416.873 L 385.455 424.873 L 359.455 433.873 L 330.455 445.873 L 304.455 458.873 L 282.455 471.873 L 263.455 485.873 L 250.455 496.873 L 242.455 503.873 L 230.455 514.873 L 223.455 520.873 L 220.455 523.873 L 216.455 521.873 L 205.455 509.873 L 195.455 501.873 L 187.455 497.873 L 165.455 493.873 L 144.455 493.873 L 132.455 494.873 L 123.455 498.873 L 110.245 508.839 L 104.086 516.19 L 99.63 527.627 L 95.455 524.873 L 86.455 515.873 L 78.455 508.873 L 64.455 496.873 L 46.455 482.873 L 29.455 470.873 L 13.455 461.873 L -11.545 449.873 L -41.545 437.873 L -82.545 423.873 L -108.55 416.873 L -145.54 407.873 L -185.54 398.873 L -229.54 388.873 L -255.54 380.873 L -284.55 368.873 L -300.55 360.873 L -310.55 354.873 L -323.55 344.873 L -332.55 337.873 L -344.55 325.873 L -347.187 322.599 L -344.55 318.873 L -331.55 308.873 L -327.55 304.873 L -319.55 297.873 L -309.55 288.873 L -299.55 277.873 L -287.55 261.873 L -275.55 241.873 L -265.55 224.873 L -256.55 208.873 L -242.54 181.873 L -235.54 166.873 L -232.54 158.873 L -233.859 151.917 L -239.54 139.873 L -245.54 120.873 L -250.54 103.873 L -257.55 74.873 L -262.55 44.873 L -266.55 12.873 L -268.55 -13.127 L -269.55 -60.127 L -268.55 -84.127 L -265.55 -115.13 L -261.55 -139.13 L -255.54 -164.13 L -249.54 -184.13 L -243.54 -199.13 L -233.54 -221.13 Z" fill="#E26237" style=""><title>tête orange</title></path><path d="M 53.384 526.067 L 58.735 529.698 L 64.455 533.873 L 77.455 545.873 L 89.455 556.873 L 97.455 563.873 L 107.455 571.873 L 118.455 578.873 L 131.455 583.873 L 147.455 586.873 L 166.455 586.873 L 184.455 582.873 L 199.455 576.873 L 220.455 562.873 L 234.455 550.873 L 243.279 542.75 L 251.559 535.294 L 257.086 541.029 L 261.455 547.873 L 272.455 570.873 L 277.455 582.873 L 284.455 602.873 L 290.455 623.873 L 295.455 644.873 L 300.455 673.873 L 304.455 710.873 L 306.455 743.873 L 306.455 762.873 L 290.455 758.873 L 280.455 757.873 L 261.455 757.873 L 244.455 760.873 L 234.455 765.873 L 225.455 771.873 L 216.455 781.873 L 210.455 793.873 L 208.455 801.873 L 205.455 832.873 L 198.455 933.873 L 193.455 979.873 L 187.455 1026.87 L 184.455 1038.87 L 179.455 1039.87 L 141.455 1039.87 L 116.455 1038.87 L 113.455 1036.87 L 107.455 993.873 L 103.455 953.873 L 100.455 909.873 L 96.455 818.873 L 94.455 799.873 L 90.455 787.873 L 85.156 778.698 L 80.455 771.873 L 74.981 765.821 L 68.754 762.522 L 55.455 759.873 L 20.455 759.873 L 12.455 760.873 L 3.455 760.873 L 1.455 759.873 L 0.455 756.873 L 0.455 729.873 L 3.455 690.873 L 6.455 667.873 L 11.455 640.873 L 17.455 616.873 L 29.455 579.873 L 36.455 561.873 L 42.455 544.873 L 53.384 526.067 Z" fill="#FDFCFC" style=""><title>buste</title></path><path d="M 23.63 503.119 L 30.735 507.802 L 43.28 517.048 L 53.455 525.873 L 51.455 529.873 L 44.559 544.418 L 39.28 556.347 L 35.455 566.873 L 25.455 594.873 L 16.455 623.873 L 9.455 655.873 L 5.455 681.873 L 2.455 712.873 L 1.455 729.873 L 1.455 759.873 L 12.455 759.873 L 20.455 758.873 L 54.754 759.399 L 64.455 760.873 L 69.455 762.873 L 76.683 766.172 L 81.455 771.873 L 84.455 777.873 L 77.455 776.873 L 71.455 780.873 L 68.455 787.873 L 66.455 798.873 L 65.455 811.873 L 65.455 882.873 L 68.455 925.873 L 70.455 945.873 L 70.455 954.873 L 68.455 955.873 L 58.455 955.873 L 39.455 952.873 L 25.455 945.873 L 16.455 937.873 L 8.455 924.873 L 1.455 905.873 L -2.545 891.873 L -7.545 869.873 L -14.545 837.873 L -20.545 807.873 L -25.545 785.873 L -31.545 764.873 L -33.545 759.873 L -35.545 759.873 L -40.545 771.873 L -44.545 797.873 L -45.545 814.873 L -45.545 864.873 L -43.545 888.873 L -39.545 917.873 L -30.545 963.873 L -22.545 994.873 L -14.545 1015.87 L -6.545 1032.87 L -1.545 1037.87 L -1.545 1039.87 L -22.545 1040.87 L -74.545 1039.87 L -100.55 1037.87 L -116.55 1034.87 L -130.54 1028.87 L -138.54 1022.87 L -148.54 1013.87 L -158.54 998.873 L -166.54 980.873 L -171.54 963.873 L -174.54 948.873 L -176.54 930.873 L -176.54 906.873 L -173.54 886.873 L -167.54 869.873 L -159.54 854.873 L -153.54 847.873 L -143.54 839.873 L -130.54 833.873 L -122.55 831.873 L -113.55 830.873 L -103.55 830.873 L -83.545 833.873 L -76.545 836.873 L -73.545 836.873 L -71.545 815.873 L -65.545 780.873 L -56.545 743.873 L -50.545 718.873 L -40.545 681.873 L -25.545 629.873 L -3.545 563.873 L 2.455 546.873 L 12.455 523.873 L 21.455 506.873 L 23.63 503.119 Z" fill="#E26137" style=""><title>pate orange gauche</title></path><path d="M 280.455 507.873 L 285.455 507.873 L 293.455 522.873 L 302.455 542.873 L 317.455 585.873 L 325.455 612.873 L 333.455 637.873 L 341.455 663.873 L 357.455 721.873 L 366.455 760.873 L 372.455 794.873 L 376.455 825.873 L 376.455 833.873 L 392.455 831.873 L 416.455 831.873 L 432.455 837.873 L 441.455 844.873 L 451.455 855.873 L 458.455 869.873 L 463.455 886.873 L 465.455 902.873 L 465.455 935.873 L 461.455 959.873 L 456.455 976.873 L 448.455 994.873 L 441.455 1005.87 L 432.455 1016.87 L 425.455 1023.87 L 415.455 1030.87 L 406.455 1034.87 L 389.455 1037.87 L 373.455 1038.87 L 300.455 1038.87 L 302.455 1032.87 L 314.455 1005.87 L 325.455 971.873 L 335.455 934.873 L 343.455 899.873 L 348.455 865.873 L 350.455 843.873 L 350.455 810.873 L 348.455 783.873 L 345.455 766.873 L 342.455 759.873 L 339.455 758.873 L 335.455 769.873 L 325.455 802.873 L 316.455 839.873 L 308.455 875.873 L 299.455 906.873 L 293.455 921.873 L 287.455 932.873 L 278.455 942.873 L 267.455 949.873 L 254.455 953.873 L 232.455 953.873 L 233.455 939.873 L 240.455 862.873 L 240.455 796.873 L 237.455 785.873 L 234.455 780.873 L 229.455 777.873 L 220.28 777.522 L 224.455 771.873 L 230.455 766.873 L 244.455 759.873 L 261.455 756.873 L 280.455 756.873 L 295.455 758.873 L 305.455 761.873 L 305.455 743.873 L 303.455 710.873 L 298.455 666.873 L 293.455 639.873 L 285.455 608.873 L 277.455 584.873 L 272.455 571.873 L 264.455 555.873 L 257.455 542.873 L 254.683 538.925 L 251.28 535.172 L 262.455 523.873 L 270.455 515.873 L 280.455 507.873 Z" fill="#E26237" style=""><title>pate orange droite</title></path><path d="M 744.455 396.873 L 747.455 397.873 L 750.455 411.873 L 756.455 482.873 L 761.455 519.873 L 771.455 571.873 L 780.455 616.873 L 783.455 635.873 L 786.455 663.873 L 787.455 686.873 L 785.455 744.873 L 781.455 772.873 L 775.455 798.873 L 771.455 810.873 L 766.455 821.873 L 757.455 841.873 L 746.455 862.873 L 735.455 879.873 L 723.455 896.873 L 712.455 909.873 L 703.455 919.873 L 687.455 935.873 L 673.455 946.873 L 659.455 956.873 L 641.455 967.873 L 616.455 979.873 L 592.455 988.873 L 568.455 995.873 L 537.455 1002.87 L 501.455 1007.87 L 489.455 1008.87 L 479.455 1008.87 L 480.455 1003.87 L 489.455 979.873 L 494.455 962.873 L 497.455 943.873 L 499.455 922.873 L 499.455 907.873 L 496.455 881.873 L 491.455 863.873 L 482.455 842.873 L 473.455 829.873 L 463.455 819.873 L 450.455 810.873 L 439.455 805.873 L 421.455 800.873 L 407.455 797.873 L 405.455 794.873 L 398.455 758.873 L 396.455 746.873 L 396.455 723.873 L 399.455 711.873 L 406.455 694.873 L 419.455 669.873 L 429.455 653.873 L 440.455 637.873 L 453.455 621.873 L 462.455 610.873 L 474.455 596.873 L 490.455 579.873 L 503.455 567.873 L 520.455 554.873 L 536.455 543.873 L 553.455 532.873 L 578.455 516.873 L 592.455 506.873 L 613.455 492.873 L 632.455 478.873 L 646.455 467.873 L 661.455 455.873 L 674.455 445.873 L 688.455 434.873 L 701.455 424.873 L 718.455 412.873 L 736.455 401.873 L 744.455 396.873 Z" fill="#E26237" style=""><title>queue orange</title></path><path d="M 744.455 396.873 L 747.455 397.873 L 750.455 411.873 L 756.455 482.873 L 761.455 519.873 L 771.455 571.873 L 783.339 614.462 L 787.098 646.368 L 786.568 671.014 L 778.455 696.873 L 770.455 717.873 L 764.455 730.873 L 755.455 749.873 L 748.455 758.873 L 745.455 760.873 L 739.455 760.873 L 735.455 756.873 L 730.455 748.873 L 723.455 725.873 L 719.455 711.873 L 715.455 695.873 L 707.455 667.873 L 704.455 657.608 L 699.808 661.844 L 692.455 669.873 L 687.75 674.549 L 682.455 679.873 L 678.19 685.52 L 665.455 698.873 L 653.455 710.873 L 639.455 720.873 L 632.455 721.873 L 626.455 714.873 L 623.455 704.873 L 621.455 681.873 L 620.455 665.873 L 620.455 602.873 L 604.808 608.844 L 580.455 619.873 L 570.131 624.578 L 561.455 628.873 L 538.455 638.873 L 531.248 641.168 L 526.808 639.226 L 522.484 632.578 L 524.455 623.873 L 528.455 612.873 L 532.455 599.873 L 538.455 581.873 L 541.455 574.873 L 512.455 577.873 L 489.542 581.197 L 493.455 576.873 L 503.455 567.873 L 520.455 554.873 L 536.455 543.873 L 553.455 532.873 L 578.455 516.873 L 592.455 506.873 L 613.455 492.873 L 632.455 478.873 L 646.455 467.873 L 661.455 455.873 L 674.455 445.873 L 688.455 434.873 L 701.455 424.873 L 718.455 412.873 L 736.455 401.873 L 744.455 396.873 Z" fill="#FDFBFB" style=""><title>queue blanche</title></path><path d="M -107.55 261.873 L -78.545 261.873 L -59.545 264.873 L -50.545 267.873 L -34.545 271.873 L -21.545 277.873 L -15.545 280.873 L -9.545 283.873 L -5.545 286.873 L -1.545 289.873 L 6.455 295.873 L 15.455 305.873 L 29.455 319.873 L 41.455 335.873 L 47.981 344.206 L 57.455 357.873 L 70.455 379.873 L 78.455 395.873 L 86.455 410.873 L 104.455 449.873 L 112.455 465.873 L 119.367 479.014 L 123.49 489.539 L 125.736 497.908 L 114.894 505.785 L 107.236 515.935 C 107.308 515.935 99.894 527.919 99.297 527.919 L 87.243 517.532 L 78.137 509.426 L 64.137 497.426 L 47.445 483.601 L 28.584 470.873 L 11.478 461.32 L -10.204 450.426 L -40.204 438.426 L -82.31 424.426 L -106.656 417.979 L -142.54 410.085 L -180.881 400.532 L -222.635 390.532 L -250.881 382.532 C -249.776 382.532 -278.785 373.296 -278.785 373.296 L -296.997 363.638 L -311.174 353.75 L -277.55 342.873 L -258.55 333.873 L -247.54 326.873 L -233.54 317.873 L -223.54 310.873 L -209.54 301.873 L -198.54 294.873 L -183.54 285.873 L -164.54 275.873 L -144.54 268.873 L -123.55 263.873 L -107.55 261.873 Z" fill="#FDFBFB" style=""><title>joue gauche</title></path><path d="M 391.455 262.873 L 427.455 262.873 L 449.455 266.873 L 468.455 271.873 L 485.455 277.873 L 501.455 285.873 L 518.455 294.873 L 535.455 305.873 L 556.455 318.873 L 572.455 328.873 L 593.455 339.873 L 603.455 343.873 L 619.455 347.873 L 623.455 350.873 L 621.455 354.873 L 601.455 366.873 L 582.455 374.873 L 555.455 382.873 L 518.455 391.873 L 412.455 416.873 L 385.455 424.873 L 359.455 433.873 L 330.455 445.873 L 304.455 458.873 L 282.455 471.873 L 263.455 485.873 L 250.455 496.873 L 242.455 503.873 L 230.455 514.873 L 225.701 518.908 L 220.455 523.873 L 216.455 521.873 L 205.455 509.873 L 195.455 501.873 L 186.701 497.557 L 188.455 489.873 L 194.455 477.873 L 204.455 458.873 L 214.455 437.873 L 221.455 422.873 L 230.455 402.873 L 242.455 380.873 L 255.455 357.873 L 262.455 346.873 L 270.455 334.873 L 277.367 324.399 L 282.455 317.873 L 289.455 309.873 L 297.455 302.873 L 308.455 292.873 L 316.455 286.873 L 320.455 283.873 L 335.455 275.873 L 345.455 271.873 L 369.455 265.873 L 391.455 262.873 Z" fill="#FDFCFB" style=""><title>joue droite</title></path><path d="M -210.54 -175.13 L -203.54 -175.13 L -188.54 -171.13 L -172.54 -163.13 L -160.54 -155.13 L -144.54 -143.13 L -134.54 -135.13 L -121.55 -124.13 L -105.55 -109.13 L -85.545 -89.127 L -77.545 -79.127 L -65.545 -65.127 L -54.545 -47.127 L -53.545 -39.127 L -60.545 -33.127 L -78.545 -21.127 L -91.545 -12.127 L -101.55 -4.127 L -111.55 4.873 L -119.55 11.873 L -129.54 20.873 L -147.54 38.873 L -154.54 46.873 L -157.54 50.873 L -161.54 54.873 L -171.54 66.873 L -189.54 90.873 L -199.54 103.873 L -202.54 105.873 L -207.54 105.873 L -211.54 100.873 L -216.54 88.873 L -224.54 59.873 L -230.54 30.873 L -234.54 6.873 L -237.54 -19.127 L -238.54 -41.127 L -238.54 -94.127 L -236.54 -112.13 L -229.54 -145.13 L -224.54 -161.13 L -220.54 -169.13 L -214.54 -174.13 L -210.54 -175.13 Z" fill="#FEFDFD" style=""><title>oreille gauche</title></path><path d="M 513.455 -177.13 L 519.455 -177.13 L 526.455 -171.13 L 534.455 -156.13 L 539.455 -141.13 L 544.455 -117.13 L 547.455 -87.127 L 547.455 -32.127 L 544.455 1.873 L 538.455 37.873 L 531.455 64.873 L 524.455 83.873 L 517.455 99.873 L 513.403 101.821 L 508.876 100.12 L 504.455 93.873 L 490.455 74.873 L 479.455 60.873 L 467.455 47.873 L 461.455 40.873 L 456.455 35.873 L 451.455 31.873 L 447.455 27.873 L 443.455 23.873 L 439.455 19.873 L 430.455 10.873 L 422.455 3.873 L 406.455 -9.127 L 375.455 -30.127 L 371.455 -34.127 L 363.455 -40.127 L 362.455 -41.127 C 359.411 -45.911 362.432 -49.164 362.455 -49.127 L 370.455 -62.127 L 380.455 -75.127 L 391.455 -89.127 L 399.455 -97.127 L 406.455 -105.13 L 421.455 -120.13 L 432.455 -129.13 L 441.455 -139.13 L 458.455 -151.13 L 477.455 -163.13 L 499.455 -173.13 L 513.455 -177.13 Z" fill="#FEFDFD" style=""><title>oreille droite</title></path><path d="M 378.455 301.873 L 395.455 301.873 L 405.455 305.873 L 408.455 308.873 L 407.455 313.873 L 409.455 318.873 L 409.455 323.873 L 402.455 323.873 L 393.455 321.873 L 372.455 321.873 L 359.455 326.873 L 348.455 334.873 L 338.455 343.873 L 335.455 345.873 L 331.455 344.873 L 329.455 343.873 L 328.455 338.873 L 332.455 328.873 L 340.455 319.873 L 355.455 309.873 L 366.455 304.873 L 378.455 301.873 Z" fill="#040102" style=""><title>faucette droite</title></path><path d="M -82.545 303.873 L -62.545 303.873 L -52.545 305.873 L -43.545 309.873 L -32.545 316.873 L -24.545 324.873 L -20.545 331.873 L -18.545 341.873 L -23.545 343.873 L -28.545 342.873 L -36.545 335.873 L -46.545 326.873 L -58.545 321.873 L -64.545 320.873 L -74.545 320.873 L -88.545 323.873 L -94.545 322.873 L -96.545 319.873 L -96.545 312.873 L -91.545 306.873 L -82.545 303.873 Z" fill="#040102" style=""><title>faucette gauche</title></path></g></svg>